<?xml version="1.0" encoding="UTF-8" standalone="no"?>
<!DOCTYPE svg PUBLIC "-//W3C//DTD SVG 1.1//EN" "http://www.w3.org/Graphics/SVG/1.1/DTD/svg11.dtd">
<svg width="100%" height="100%" viewBox="0 0 400 400" version="1.1" xmlns="http://www.w3.org/2000/svg" xmlns:xlink="http://www.w3.org/1999/xlink" xml:space="preserve" xmlns:serif="http://www.serif.com/" style="fill-rule:evenodd;clip-rule:evenodd;stroke-linejoin:round;stroke-miterlimit:2;">
    <g transform="matrix(0.24,0,0,0.24,0,0)">
        <g id="Ebene-1" serif:id="Ebene 1" transform="matrix(5.55556,0,0,5.55556,0,0)">
            <g transform="matrix(0.790695,-0.612211,-0.612211,-0.790695,72.6985,85.9808)">
                <path d="M-17.607,-6.02C-33.49,-6.02 -46.366,6.856 -46.365,22.739C-46.366,38.622 -33.49,51.498 -17.607,51.498C-1.724,51.499 11.152,38.623 11.151,22.74C11.152,6.857 -1.723,-6.02 -17.607,-6.02" style="fill:rgb(240,79,87);fill-rule:nonzero;"/>
            </g>
            <g transform="matrix(1,0,0,1,202.018,91.1837)">
                <path d="M0,118.414C-3.681,133.865 -19.189,143.406 -34.641,139.726C-50.092,136.045 -59.633,120.536 -55.952,105.085C-52.271,89.635 -36.762,80.093 -21.312,83.773C-5.86,87.455 3.681,102.964 0,118.414M81.577,-57.246L79.618,-59.251C78.37,-60.489 77.085,-61.703 75.751,-62.883C37.866,-96.414 -20.028,-92.885 -53.559,-55C-71.27,-34.99 -78.632,-9.4 -76.062,15.235L-39.127,13.661L-72.778,31.811C-72.778,31.812 -73.748,32.354 -73.748,32.354L-174.317,88.341C-193.26,98.997 -199.979,122.991 -189.323,141.935C-179.178,159.97 -156.942,166.923 -138.486,158.352L-138.074,158.155C-137.285,157.778 -136.503,157.375 -135.729,156.94C-135.729,156.94 -127.855,152.628 -125.887,151.663C-117.343,147.88 -111.29,151.011 -106.625,158.727L-104.393,162.268C-102.823,164.637 -101.136,166.956 -99.318,169.213C-67.582,208.614 -9.914,214.828 29.487,183.092C59.308,159.072 70.111,120.2 59.847,85.634C56.549,74.529 51.083,63.867 43.366,54.287C33.649,42.224 21.822,32.831 8.525,27.147C4.241,25.376 1.624,24.168 -1.299,21.582C-7.523,16.072 -9.146,7.3 -5.876,0.107C-5.133,-1.526 -4.139,-3.078 -2.888,-4.492C3.873,-12.131 14.44,-12.706 22.08,-5.944L26.343,-1.338C42.618,13.066 67.489,11.55 81.895,-4.725C95.335,-19.91 94.913,-42.577 81.577,-57.246" style="fill:rgb(240,79,87);fill-rule:nonzero;"/>
            </g>
        </g>
    </g>
</svg>
